<?xml version="1.0" encoding="UTF-8" standalone="no"?>
<svg
   xmlns:dc="http://purl.org/dc/elements/1.1/"
   xmlns:cc="http://creativecommons.org/ns#"
   xmlns:rdf="http://www.w3.org/1999/02/22-rdf-syntax-ns#"
   xmlns:svg="http://www.w3.org/2000/svg"
   xmlns="http://www.w3.org/2000/svg"
   xmlns:sodipodi="http://sodipodi.sourceforge.net/DTD/sodipodi-0.dtd"
   xmlns:inkscape="http://www.inkscape.org/namespaces/inkscape"
   version="1.1"
   id="Capa_1"
   x="0px"
   y="0px"
   viewBox="0 0 52 52"
   style="enable-background:new 0 0 52 52;"
   xml:space="preserve"
   width="512px"
   height="512px"
   sodipodi:docname="markericon.svg"
   inkscape:version="0.92.1 unknown"><metadata
     id="metadata11"><rdf:RDF><cc:Work
         rdf:about=""><dc:format>image/svg+xml</dc:format><dc:type
           rdf:resource="http://purl.org/dc/dcmitype/StillImage" /><dc:title /></cc:Work></rdf:RDF></metadata><defs
     id="defs9" /><sodipodi:namedview
     pagecolor="#ffffff"
     bordercolor="#666666"
     borderopacity="1"
     objecttolerance="10"
     gridtolerance="10"
     guidetolerance="10"
     inkscape:pageopacity="0"
     inkscape:pageshadow="2"
     inkscape:window-width="640"
     inkscape:window-height="480"
     id="namedview7"
     showgrid="false"
     inkscape:zoom="0.4609375"
     inkscape:cx="-326.50847"
     inkscape:cy="256"
     inkscape:current-layer="Capa_1" /><g
     id="g4"
     style="fill:#ffffff"><path
       d="M26,0C11.664,0,0,11.663,0,26s11.664,26,26,26s26-11.663,26-26S40.336,0,26,0z M40.495,17.329l-16,18   C24.101,35.772,23.552,36,22.999,36c-0.439,0-0.88-0.144-1.249-0.438l-10-8c-0.862-0.689-1.002-1.948-0.312-2.811   c0.689-0.863,1.949-1.003,2.811-0.313l8.517,6.813l14.739-16.581c0.732-0.826,1.998-0.9,2.823-0.166   C41.154,15.239,41.229,16.503,40.495,17.329z"
       fill="#006DF0"
       id="path2"
       style="fill:#ffffff;fill-opacity:0.64" /></g><path
     style="fill:none;fill-opacity:0;stroke:#006ff4;stroke-width:2.00891495;stroke-miterlimit:4;stroke-dasharray:none;stroke-opacity:0"
     d="m 213.66207,347.93488 c -3.44228,-2.65344 -27.52658,-21.71661 -53.52068,-42.36259 -54.27507,-43.10832 -57.43935,-47.32806 -45.83328,-61.12109 4.20398,-4.99614 7.43602,-6.67493 12.85077,-6.67493 8.0585,0 9.54023,1.02872 61.50181,42.69892 18.3288,14.69865 34.17562,26.72481 35.21515,26.72481 1.03952,0 34.13056,-36.3661 73.53564,-80.81356 41.10793,-46.36821 74.72604,-82.43611 78.87275,-84.6203 5.9879,-3.15399 8.44261,-3.38302 14.31569,-1.33565 7.9703,2.77846 13.09112,12.02606 11.44057,20.66033 -0.88838,4.64732 -154.88641,181.12831 -164.88432,188.95664 -5.38232,4.21434 -16.59416,3.20618 -23.4941,-2.11258 z"
     id="path4488"
     inkscape:connector-curvature="0"
     transform="scale(0.1015625)" /></svg>